<svg version="1.1" xmlns="http://www.w3.org/2000/svg" xmlns:xlink="http://www.w3.org/1999/xlink" width="449.07683" height="272.7947" viewBox="0,0,449.07683,272.7947"><g transform="translate(-9.44042,-1.23479)"><g data-paper-data="{&quot;isPaintingLayer&quot;:true}" fill="#000000" fill-rule="nonzero" stroke-linejoin="miter" stroke-miterlimit="10" stroke-dasharray="" stroke-dashoffset="0" style="mix-blend-mode: normal"><path d="M9.44042,271.52949c0,-1.38071 1.11929,-2.5 2.5,-2.5c1.38071,0 2.5,1.11929 2.5,2.5c0,1.38071 -1.11929,2.5 -2.5,2.5c-1.38071,0 -2.5,-1.11929 -2.5,-2.5z" stroke="none" stroke-width="0.5" stroke-linecap="butt"/><path d="M453.51725,271.52949c0,-1.38071 1.11929,-2.5 2.5,-2.5c1.38071,0 2.5,1.11929 2.5,2.5c0,1.38071 -1.11929,2.5 -2.5,2.5c-1.38071,0 -2.5,-1.11929 -2.5,-2.5z" stroke="none" stroke-width="0.5" stroke-linecap="butt"/><path d="M10.40371,5.66137c0,-1.38071 1.11929,-2.5 2.5,-2.5c1.38071,0 2.5,1.11929 2.5,2.5c0,1.38071 -1.11929,2.5 -2.5,2.5c-1.38071,0 -2.5,-1.11929 -2.5,-2.5z" stroke="none" stroke-width="0.5" stroke-linecap="butt"/><path d="M453.51725,3.73479c0,-1.38071 1.11929,-2.5 2.5,-2.5c1.38071,0 2.5,1.11929 2.5,2.5c0,1.38071 -1.11929,2.5 -2.5,2.5c-1.38071,0 -2.5,-1.11929 -2.5,-2.5z" stroke="none" stroke-width="0.5" stroke-linecap="butt"/><path d="M384.9463,214.53883l-1.44219,-135.6973l59.12974,-21.64138l-0.72109,181.90457z" stroke="#000000" stroke-width="2" stroke-linecap="round"/></g></g></svg>